<svg xmlns="http://www.w3.org/2000/svg" width="271" height="108" fill="none">
  <g clip-path="url(#a)">
    <path fill="#FF970C" d="M138.403 44.471a2.528 2.528 0 0 1-1.497-.523 2.965 2.965 0 0 1-.985-1.357 3.326 3.326 0 0 1-.143-1.736 3.124 3.124 0 0 1 .749-1.533c.38-.417.863-.7 1.387-.814a2.461 2.461 0 0 1 1.562.176c.493.229.915.615 1.211 1.109.297.494.455 1.075.455 1.669 0 .4-.072.797-.212 1.166-.14.37-.344.704-.602.985-.258.28-.564.5-.899.648a2.473 2.473 0 0 1-1.055.21h.029Z"/>
    <path fill="#FF970C" d="m105.39 35.443 12.673 28.93 14.421 32.911c.459 1.07 1.44 1.741 2.506 1.715 1.039.007 1.989-.647 2.447-1.682l27.183-61.874c10.212-1.401 11.126-16.57 1.544-20.58-20.726-8.676-41.399-6.909-62.319 0-9.97 3.223-8.718 19.335 1.603 20.613l-.058-.033Zm29.629-21.034c11.107-.6 31.77 3.275 32.66 10.55-.02 1.239-.506 2.413-1.341 3.236-.851.87-1.996 1.293-3.146 1.165-1.291-.204-1.992.382-2.622 1.456l-25.58 58.313c-8.029-18.274-16.145-36.504-24.007-54.85 1.65-.662 3.263-1.408 4.924-2.04 0 0 5.847-1.02 9.072-1.423 3.138-.392 9.865-.97 9.865-.97a56.756 56.756 0 0 1 18.326 1.973c3.477 1.144 5.021-4.649 1.544-5.793a60.308 60.308 0 0 0-19.724-1.941c-15.033 0-19.462 1.941-23.744 3.818-1.56.717-3.058 1.424-4.778 1.424-4.668-.056-5.605-7.366-1.137-8.867 9.577-4.221 19.203-5.925 29.688-6.05Z"/>
    <path fill="#FF970C" d="M125.251 25.479c-1.423 0-2.814.468-3.997 1.347-1.183.878-2.105 2.126-2.65 3.586a8.808 8.808 0 0 0-.409 4.617c.277 1.55.962 2.975 1.969 4.092 1.006 1.118 2.288 1.879 3.684 2.187a6.532 6.532 0 0 0 4.157-.454c1.314-.605 2.438-1.63 3.229-2.944a8.639 8.639 0 0 0 1.212-4.44c0-1.05-.186-2.088-.548-3.058a8.092 8.092 0 0 0-1.559-2.593 7.192 7.192 0 0 0-2.334-1.732 6.579 6.579 0 0 0-2.754-.608Zm0 10.646c-.472 0-.934-.156-1.327-.448a2.617 2.617 0 0 1-.881-1.19 2.94 2.94 0 0 1-.136-1.535c.093-.514.32-.987.654-1.359.335-.37.76-.624 1.224-.726a2.17 2.17 0 0 1 1.381.151c.436.2.81.541 1.072.978.263.436.403.95.403 1.474.003.351-.056.7-.174 1.025a2.71 2.71 0 0 1-.517.87c-.222.25-.487.448-.778.583a2.189 2.189 0 0 1-.921.205v-.028Zm8.802 26.647a4.907 4.907 0 0 0-2.928.986c-.866.643-1.542 1.557-1.941 2.627a6.459 6.459 0 0 0-.299 3.381 6.075 6.075 0 0 0 1.442 2.997c.737.819 1.676 1.376 2.698 1.602a4.782 4.782 0 0 0 3.044-.333c.963-.443 1.786-1.193 2.365-2.156a6.324 6.324 0 0 0 .888-3.251c0-.77-.136-1.53-.401-2.24a5.925 5.925 0 0 0-1.142-1.9 5.262 5.262 0 0 0-1.71-1.268 4.814 4.814 0 0 0-2.016-.445Zm0 7.797a1.63 1.63 0 0 1-.973-.328 1.916 1.916 0 0 1-.644-.873 2.145 2.145 0 0 1-.1-1.123 2.02 2.02 0 0 1 .479-.995c.245-.272.557-.457.896-.532.34-.075.692-.037 1.012.11.319.148.593.397.785.716.192.32.295.696.295 1.08a2.12 2.12 0 0 1-.128.751 1.974 1.974 0 0 1-.378.638 1.75 1.75 0 0 1-.57.427c-.214.099-.443.15-.674.15v-.021Z"/>
    <path fill="#0F0A05" d="M0 68.625V38.217h10.922c3.913 0 6.885.717 8.918 2.151 2.047 1.434 3.07 3.516 3.07 6.245 0 1.573-.362 2.916-1.086 4.03-.724 1.114-1.789 1.936-3.195 2.465 1.587.417 2.805 1.197 3.654 2.339.85 1.141 1.274 2.534 1.274 4.176 0 2.98-.946 5.222-2.84 6.725-1.88 1.49-4.67 2.249-8.374 2.277H0Zm7.33-12.928v7.289h4.804c1.322 0 2.339-.3 3.049-.898.71-.613 1.065-1.469 1.065-2.569 0-2.534-1.26-3.808-3.78-3.822H7.33Zm0-4.803h3.822c1.601-.014 2.743-.306 3.425-.877.682-.571 1.024-1.413 1.024-2.527 0-1.281-.37-2.2-1.107-2.757-.738-.57-1.929-.856-3.572-.856H7.33v7.017Zm29.573 9.836h-2.11v7.895h-7.059V46.028h7.06v8.124h2.025l3.592-8.124h9.022l-6.6 10.442h.022l7.247 12.155h-9.545l-3.654-7.895Zm23.912-1.963 3.76-12.74h7.538l-9.21 26.378-.396.96c-1.31 2.924-3.62 4.386-6.934 4.386-.919 0-1.887-.14-2.903-.418V72.3h.919c.989 0 1.74-.146 2.255-.438.53-.279.92-.787 1.17-1.525l.564-1.504-7.853-22.805h7.519l3.571 12.74Zm22.409 4.845c.988 0 1.754-.264 2.297-.793.543-.543.808-1.295.794-2.256h6.6c0 2.479-.892 4.511-2.674 6.099-1.768 1.587-4.052 2.38-6.85 2.38-3.286 0-5.876-1.03-7.77-3.09-1.893-2.061-2.84-4.915-2.84-8.563v-.293c0-2.283.418-4.295 1.254-6.035.849-1.754 2.067-3.098 3.654-4.03 1.588-.947 3.467-1.42 5.64-1.42 2.937 0 5.269.814 6.995 2.443 1.727 1.629 2.59 3.835 2.59 6.62h-6.6c0-1.17-.285-2.068-.856-2.694-.57-.627-1.336-.94-2.297-.94-1.824 0-2.889 1.163-3.195 3.488-.098.738-.146 1.754-.146 3.049 0 2.27.271 3.843.814 4.72.543.877 1.406 1.315 2.59 1.315Zm32.788 5.013h-7.059V60.25h-6.161v8.375h-7.038V46.028h7.038v8.813h6.161v-8.813h7.059v22.597Zm2.966-11.508c0-2.255.438-4.26 1.315-6.014.877-1.769 2.137-3.126 3.78-4.073 1.643-.946 3.572-1.42 5.785-1.42 3.384 0 6.05 1.051 7.999 3.154 1.949 2.088 2.924 4.935 2.924 8.541v.251c0 3.522-.982 6.32-2.945 8.395-1.949 2.061-4.594 3.091-7.936 3.091-3.216 0-5.799-.96-7.748-2.882-1.949-1.935-3-4.552-3.154-7.852l-.02-1.19Zm7.038.439c0 2.088.327 3.62.981 4.595.655.974 1.622 1.461 2.903 1.461 2.506 0 3.787-1.928 3.843-5.785v-.71c0-4.051-1.295-6.077-3.885-6.077-2.353 0-3.627 1.747-3.822 5.242l-.02 1.274Zm43.731 11.069h-7.33V43.877h-10.923v24.748h-7.33V38.217h25.583v30.408Zm17.376-22.597h7.059v22.597h-7.059V55.468l-6.203 13.157h-7.079V46.028h7.079v13.115l6.203-13.115Zm10.693 0h7.038v17.167h6.223V46.028h7.08v17.209h3.717l-.417 12.092h-6.642v-6.704h-16.999V46.028Zm26.335 0h7.038v17.167h6.223V46.028h7.08v17.209h3.717l-.417 12.092h-6.642v-6.704h-16.999V46.028Zm39.199 22.597c-.25-.46-.473-1.135-.668-2.026-1.295 1.629-3.105 2.443-5.43 2.443-2.13 0-3.94-.64-5.43-1.921-1.489-1.295-2.234-2.917-2.234-4.866 0-2.45.905-4.302 2.715-5.555 1.81-1.253 4.441-1.88 7.894-1.88h2.172v-1.19c0-2.075-.898-3.112-2.694-3.112-1.671 0-2.506.821-2.506 2.464h-7.038c0-2.186.926-3.96 2.777-5.325 1.866-1.365 4.24-2.047 7.122-2.047 2.882 0 5.158.703 6.829 2.11 1.671 1.406 2.527 3.334 2.569 5.784v10.004c.028 2.074.348 3.662.96 4.762v.355h-7.038Zm-4.406-4.595c.877 0 1.601-.188 2.172-.564.585-.376 1.002-.8 1.253-1.274V58.58h-2.047c-2.45 0-3.675 1.1-3.675 3.3 0 .64.215 1.163.647 1.566.432.39.982.585 1.65.585Z"/>
  </g>
  <defs>
    <clipPath id="a">
      <path fill="#fff" d="M0 0h270.388v108H0z"/>
    </clipPath>
  </defs>
</svg>
