<?xml version="1.0" encoding="UTF-8" standalone="no"?>
<svg
   width="270.388"
   height="89.999763"
   fill="none"
   version="1.1"
   id="svg5"
   sodipodi:docname="brand_logo.svg"
   inkscape:version="1.3.2 (091e20e, 2023-11-25, custom)"
   xmlns:inkscape="http://www.inkscape.org/namespaces/inkscape"
   xmlns:sodipodi="http://sodipodi.sourceforge.net/DTD/sodipodi-0.dtd"
   xmlns="http://www.w3.org/2000/svg"
   xmlns:svg="http://www.w3.org/2000/svg">
  <sodipodi:namedview
     id="namedview5"
     pagecolor="#ffffff"
     bordercolor="#000000"
     borderopacity="0.25"
     inkscape:showpageshadow="2"
     inkscape:pageopacity="0.0"
     inkscape:pagecheckerboard="0"
     inkscape:deskcolor="#d1d1d1"
     inkscape:zoom="3.3726937"
     inkscape:cx="134.01751"
     inkscape:cy="45.216083"
     inkscape:window-width="1920"
     inkscape:window-height="1001"
     inkscape:window-x="-9"
     inkscape:window-y="-9"
     inkscape:window-maximized="1"
     inkscape:current-layer="g4" />
  <g
     clip-path="url(#a)"
     id="g4"
     transform="translate(0,-8.9999622)">
    <path
       fill="#ff970c"
       d="m 138.403,44.471 a 2.528,2.528 0 0 1 -1.497,-0.523 2.965,2.965 0 0 1 -0.985,-1.357 3.326,3.326 0 0 1 -0.143,-1.736 3.124,3.124 0 0 1 0.749,-1.533 c 0.38,-0.417 0.863,-0.7 1.387,-0.814 a 2.461,2.461 0 0 1 1.562,0.176 c 0.493,0.229 0.915,0.615 1.211,1.109 0.297,0.494 0.455,1.075 0.455,1.669 0,0.4 -0.072,0.797 -0.212,1.166 -0.14,0.37 -0.344,0.704 -0.602,0.985 -0.258,0.28 -0.564,0.5 -0.899,0.648 a 2.473,2.473 0 0 1 -1.055,0.21 z"
       id="path1" />
    <path
       fill="#ff970c"
       d="m 105.39,35.443 12.673,28.93 14.421,32.911 c 0.459,1.07 1.44,1.741 2.506,1.715 1.039,0.007 1.989,-0.647 2.447,-1.682 L 164.62,35.443 c 10.212,-1.401 11.126,-16.57 1.544,-20.58 -20.726,-8.676 -41.399,-6.909 -62.319,0 -9.97,3.223 -8.718,19.335 1.603,20.613 z m 29.629,-21.034 c 11.107,-0.6 31.77,3.275 32.66,10.55 -0.02,1.239 -0.506,2.413 -1.341,3.236 -0.851,0.87 -1.996,1.293 -3.146,1.165 -1.291,-0.204 -1.992,0.382 -2.622,1.456 l -25.58,58.313 c -8.029,-18.274 -16.145,-36.504 -24.007,-54.85 1.65,-0.662 3.263,-1.408 4.924,-2.04 0,0 5.847,-1.02 9.072,-1.423 3.138,-0.392 9.865,-0.97 9.865,-0.97 a 56.756,56.756 0 0 1 18.326,1.973 c 3.477,1.144 5.021,-4.649 1.544,-5.793 A 60.308,60.308 0 0 0 134.99,24.085 c -15.033,0 -19.462,1.941 -23.744,3.818 -1.56,0.717 -3.058,1.424 -4.778,1.424 -4.668,-0.056 -5.605,-7.366 -1.137,-8.867 9.577,-4.221 19.203,-5.925 29.688,-6.05 z"
       id="path2" />
    <path
       fill="#ff970c"
       d="m 125.251,25.479 c -1.423,0 -2.814,0.468 -3.997,1.347 -1.183,0.878 -2.105,2.126 -2.65,3.586 a 8.808,8.808 0 0 0 -0.409,4.617 c 0.277,1.55 0.962,2.975 1.969,4.092 1.006,1.118 2.288,1.879 3.684,2.187 a 6.532,6.532 0 0 0 4.157,-0.454 c 1.314,-0.605 2.438,-1.63 3.229,-2.944 a 8.639,8.639 0 0 0 1.212,-4.44 c 0,-1.05 -0.186,-2.088 -0.548,-3.058 a 8.092,8.092 0 0 0 -1.559,-2.593 7.192,7.192 0 0 0 -2.334,-1.732 6.579,6.579 0 0 0 -2.754,-0.608 z m 0,10.646 c -0.472,0 -0.934,-0.156 -1.327,-0.448 a 2.617,2.617 0 0 1 -0.881,-1.19 2.94,2.94 0 0 1 -0.136,-1.535 c 0.093,-0.514 0.32,-0.987 0.654,-1.359 0.335,-0.37 0.76,-0.624 1.224,-0.726 a 2.17,2.17 0 0 1 1.381,0.151 c 0.436,0.2 0.81,0.541 1.072,0.978 0.263,0.436 0.403,0.95 0.403,1.474 0.003,0.351 -0.056,0.7 -0.174,1.025 a 2.71,2.71 0 0 1 -0.517,0.87 c -0.222,0.25 -0.487,0.448 -0.778,0.583 a 2.189,2.189 0 0 1 -0.921,0.205 z m 8.802,26.647 a 4.907,4.907 0 0 0 -2.928,0.986 c -0.866,0.643 -1.542,1.557 -1.941,2.627 a 6.459,6.459 0 0 0 -0.299,3.381 6.075,6.075 0 0 0 1.442,2.997 c 0.737,0.819 1.676,1.376 2.698,1.602 a 4.782,4.782 0 0 0 3.044,-0.333 c 0.963,-0.443 1.786,-1.193 2.365,-2.156 a 6.324,6.324 0 0 0 0.888,-3.251 c 0,-0.77 -0.136,-1.53 -0.401,-2.24 a 5.925,5.925 0 0 0 -1.142,-1.9 5.262,5.262 0 0 0 -1.71,-1.268 4.814,4.814 0 0 0 -2.016,-0.445 z m 0,7.797 a 1.63,1.63 0 0 1 -0.973,-0.328 1.916,1.916 0 0 1 -0.644,-0.873 2.145,2.145 0 0 1 -0.1,-1.123 2.02,2.02 0 0 1 0.479,-0.995 c 0.245,-0.272 0.557,-0.457 0.896,-0.532 0.34,-0.075 0.692,-0.037 1.012,0.11 0.319,0.148 0.593,0.397 0.785,0.716 0.192,0.32 0.295,0.696 0.295,1.08 a 2.12,2.12 0 0 1 -0.128,0.751 1.974,1.974 0 0 1 -0.378,0.638 1.75,1.75 0 0 1 -0.57,0.427 c -0.214,0.099 -0.443,0.15 -0.674,0.15 z"
       id="path3" />
    <path
       fill="#0f0a05"
       d="M 0,68.625 V 38.217 h 10.922 c 3.913,0 6.885,0.717 8.918,2.151 2.047,1.434 3.07,3.516 3.07,6.245 0,1.573 -0.362,2.916 -1.086,4.03 -0.724,1.114 -1.789,1.936 -3.195,2.465 1.587,0.417 2.805,1.197 3.654,2.339 0.85,1.141 1.274,2.534 1.274,4.176 0,2.98 -0.946,5.222 -2.84,6.725 -1.88,1.49 -4.67,2.249 -8.374,2.277 H 0 Z M 7.33,55.697 v 7.289 h 4.804 c 1.322,0 2.339,-0.3 3.049,-0.898 0.71,-0.613 1.065,-1.469 1.065,-2.569 0,-2.534 -1.26,-3.808 -3.78,-3.822 z m 0,-4.803 h 3.822 c 1.601,-0.014 2.743,-0.306 3.425,-0.877 0.682,-0.571 1.024,-1.413 1.024,-2.527 0,-1.281 -0.37,-2.2 -1.107,-2.757 -0.738,-0.57 -1.929,-0.856 -3.572,-0.856 H 7.33 Z m 29.573,9.836 h -2.11 v 7.895 H 27.734 V 46.028 h 7.06 v 8.124 h 2.025 l 3.592,-8.124 h 9.022 l -6.6,10.442 h 0.022 l 7.247,12.155 h -9.545 z m 23.912,-1.963 3.76,-12.74 h 7.538 l -9.21,26.378 -0.396,0.96 c -1.31,2.924 -3.62,4.386 -6.934,4.386 -0.919,0 -1.887,-0.14 -2.903,-0.418 V 72.3 h 0.919 c 0.989,0 1.74,-0.146 2.255,-0.438 0.53,-0.279 0.92,-0.787 1.17,-1.525 l 0.564,-1.504 -7.853,-22.805 h 7.519 l 3.571,12.74 z m 22.409,4.845 c 0.988,0 1.754,-0.264 2.297,-0.793 0.543,-0.543 0.808,-1.295 0.794,-2.256 h 6.6 c 0,2.479 -0.892,4.511 -2.674,6.099 -1.768,1.587 -4.052,2.38 -6.85,2.38 -3.286,0 -5.876,-1.03 -7.77,-3.09 -1.893,-2.061 -2.84,-4.915 -2.84,-8.563 v -0.293 c 0,-2.283 0.418,-4.295 1.254,-6.035 0.849,-1.754 2.067,-3.098 3.654,-4.03 1.588,-0.947 3.467,-1.42 5.64,-1.42 2.937,0 5.269,0.814 6.995,2.443 1.727,1.629 2.59,3.835 2.59,6.62 h -6.6 c 0,-1.17 -0.285,-2.068 -0.856,-2.694 -0.57,-0.627 -1.336,-0.94 -2.297,-0.94 -1.824,0 -2.889,1.163 -3.195,3.488 -0.098,0.738 -0.146,1.754 -0.146,3.049 0,2.27 0.271,3.843 0.814,4.72 0.543,0.877 1.406,1.315 2.59,1.315 z m 32.788,5.013 h -7.059 V 60.25 h -6.161 v 8.375 H 95.754 V 46.028 h 7.038 v 8.813 h 6.161 v -8.813 h 7.059 z m 2.966,-11.508 c 0,-2.255 0.438,-4.26 1.315,-6.014 0.877,-1.769 2.137,-3.126 3.78,-4.073 1.643,-0.946 3.572,-1.42 5.785,-1.42 3.384,0 6.05,1.051 7.999,3.154 1.949,2.088 2.924,4.935 2.924,8.541 v 0.251 c 0,3.522 -0.982,6.32 -2.945,8.395 -1.949,2.061 -4.594,3.091 -7.936,3.091 -3.216,0 -5.799,-0.96 -7.748,-2.882 -1.949,-1.935 -3,-4.552 -3.154,-7.852 l -0.02,-1.19 z m 7.038,0.439 c 0,2.088 0.327,3.62 0.981,4.595 0.655,0.974 1.622,1.461 2.903,1.461 2.506,0 3.787,-1.928 3.843,-5.785 v -0.71 c 0,-4.051 -1.295,-6.077 -3.885,-6.077 -2.353,0 -3.627,1.747 -3.822,5.242 z m 43.731,11.069 h -7.33 V 43.877 h -10.923 v 24.748 h -7.33 V 38.217 h 25.583 z m 17.376,-22.597 h 7.059 v 22.597 h -7.059 V 55.468 l -6.203,13.157 h -7.079 V 46.028 h 7.079 v 13.115 z m 10.693,0 h 7.038 v 17.167 h 6.223 V 46.028 h 7.08 v 17.209 h 3.717 l -0.417,12.092 h -6.642 v -6.704 h -16.999 z m 26.335,0 h 7.038 v 17.167 h 6.223 V 46.028 h 7.08 v 17.209 h 3.717 l -0.417,12.092 h -6.642 v -6.704 h -16.999 z m 39.199,22.597 c -0.25,-0.46 -0.473,-1.135 -0.668,-2.026 -1.295,1.629 -3.105,2.443 -5.43,2.443 -2.13,0 -3.94,-0.64 -5.43,-1.921 -1.489,-1.295 -2.234,-2.917 -2.234,-4.866 0,-2.45 0.905,-4.302 2.715,-5.555 1.81,-1.253 4.441,-1.88 7.894,-1.88 h 2.172 v -1.19 c 0,-2.075 -0.898,-3.112 -2.694,-3.112 -1.671,0 -2.506,0.821 -2.506,2.464 h -7.038 c 0,-2.186 0.926,-3.96 2.777,-5.325 1.866,-1.365 4.24,-2.047 7.122,-2.047 2.882,0 5.158,0.703 6.829,2.11 1.671,1.406 2.527,3.334 2.569,5.784 v 10.004 c 0.028,2.074 0.348,3.662 0.96,4.762 v 0.355 z m -4.406,-4.595 c 0.877,0 1.601,-0.188 2.172,-0.564 0.585,-0.376 1.002,-0.8 1.253,-1.274 V 58.58 h -2.047 c -2.45,0 -3.675,1.1 -3.675,3.3 0,0.64 0.215,1.163 0.647,1.566 0.432,0.39 0.982,0.585 1.65,0.585 z"
       id="path4" />
  </g>
  <defs
     id="defs5">
    <clipPath
       id="a">
      <path
         fill="#ffffff"
         d="M 0,0 H 270.388 V 108 H 0 Z"
         id="path5" />
    </clipPath>
  </defs>
</svg>
