<?xml version="1.0" encoding="UTF-8" standalone="no"?>
<svg
   width="50.121094"
   height="45.499943"
   fill="none"
   version="1.1"
   id="svg5"
   sodipodi:docname="favicon.svg"
   inkscape:version="1.3.2 (091e20e, 2023-11-25, custom)"
   xmlns:inkscape="http://www.inkscape.org/namespaces/inkscape"
   xmlns:sodipodi="http://sodipodi.sourceforge.net/DTD/sodipodi-0.dtd"
   xmlns="http://www.w3.org/2000/svg"
   xmlns:svg="http://www.w3.org/2000/svg">
  <sodipodi:namedview
     id="namedview5"
     pagecolor="#ffffff"
     bordercolor="#000000"
     borderopacity="0.25"
     inkscape:showpageshadow="2"
     inkscape:pageopacity="0.0"
     inkscape:pagecheckerboard="0"
     inkscape:deskcolor="#d1d1d1"
     inkscape:zoom="3.3726937"
     inkscape:cx="36.469366"
     inkscape:cy="29.501641"
     inkscape:window-width="1920"
     inkscape:window-height="1001"
     inkscape:window-x="-9"
     inkscape:window-y="-9"
     inkscape:window-maximized="1"
     inkscape:current-layer="g4" />
  <g
     clip-path="url(#a)"
     id="g4"
     transform="translate(-110.88736,-31.249873)">
    <g
       id="g1"
       transform="matrix(0.50555622,0,0,0.50555622,66.983563,26.699886)">
      <path
         fill="#ff970c"
         d="m 138.403,44.471 a 2.528,2.528 0 0 1 -1.497,-0.523 2.965,2.965 0 0 1 -0.985,-1.357 3.326,3.326 0 0 1 -0.143,-1.736 3.124,3.124 0 0 1 0.749,-1.533 c 0.38,-0.417 0.863,-0.7 1.387,-0.814 a 2.461,2.461 0 0 1 1.562,0.176 c 0.493,0.229 0.915,0.615 1.211,1.109 0.297,0.494 0.455,1.075 0.455,1.669 0,0.4 -0.072,0.797 -0.212,1.166 -0.14,0.37 -0.344,0.704 -0.602,0.985 -0.258,0.28 -0.564,0.5 -0.899,0.648 a 2.473,2.473 0 0 1 -1.055,0.21 z"
         id="path1" />
      <path
         fill="#ff970c"
         d="m 105.39,35.443 12.673,28.93 14.421,32.911 c 0.459,1.07 1.44,1.741 2.506,1.715 1.039,0.007 1.989,-0.647 2.447,-1.682 L 164.62,35.443 c 10.212,-1.401 11.126,-16.57 1.544,-20.58 -20.726,-8.6759999 -41.399,-6.9089999 -62.319,0 -9.970004,3.223 -8.718004,19.335 1.603,20.613 z m 29.629,-21.034 c 11.107,-0.6 31.77,3.275 32.66,10.55 -0.02,1.239 -0.506,2.413 -1.341,3.236 -0.851,0.87 -1.996,1.293 -3.146,1.165 -1.291,-0.204 -1.992,0.382 -2.622,1.456 l -25.58,58.313 c -8.029,-18.274 -16.145,-36.504 -24.007,-54.85 1.65,-0.662 3.263,-1.408 4.924,-2.04 0,0 5.847,-1.02 9.072,-1.423 3.138,-0.392 9.865,-0.97 9.865,-0.97 a 56.756,56.756 0 0 1 18.326,1.973 c 3.477,1.144 5.021,-4.649 1.544,-5.793 A 60.308,60.308 0 0 0 134.99,24.085 c -15.033,0 -19.462,1.941 -23.744,3.818 -1.56,0.717 -3.058,1.424 -4.778,1.424 -4.668,-0.056 -5.605,-7.366 -1.137,-8.867 9.577,-4.221 19.203,-5.925 29.688,-6.05 z"
         id="path2"
         style="stroke-width:1" />
      <path
         fill="#ff970c"
         d="m 125.251,25.479 c -1.423,0 -2.814,0.468 -3.997,1.347 -1.183,0.878 -2.105,2.126 -2.65,3.586 a 8.808,8.808 0 0 0 -0.409,4.617 c 0.277,1.55 0.962,2.975 1.969,4.092 1.006,1.118 2.288,1.879 3.684,2.187 a 6.532,6.532 0 0 0 4.157,-0.454 c 1.314,-0.605 2.438,-1.63 3.229,-2.944 a 8.639,8.639 0 0 0 1.212,-4.44 c 0,-1.05 -0.186,-2.088 -0.548,-3.058 a 8.092,8.092 0 0 0 -1.559,-2.593 7.192,7.192 0 0 0 -2.334,-1.732 6.579,6.579 0 0 0 -2.754,-0.608 z m 0,10.646 c -0.472,0 -0.934,-0.156 -1.327,-0.448 a 2.617,2.617 0 0 1 -0.881,-1.19 2.94,2.94 0 0 1 -0.136,-1.535 c 0.093,-0.514 0.32,-0.987 0.654,-1.359 0.335,-0.37 0.76,-0.624 1.224,-0.726 a 2.17,2.17 0 0 1 1.381,0.151 c 0.436,0.2 0.81,0.541 1.072,0.978 0.263,0.436 0.403,0.95 0.403,1.474 0.003,0.351 -0.056,0.7 -0.174,1.025 a 2.71,2.71 0 0 1 -0.517,0.87 c -0.222,0.25 -0.487,0.448 -0.778,0.583 a 2.189,2.189 0 0 1 -0.921,0.205 z m 8.802,26.647 a 4.907,4.907 0 0 0 -2.928,0.986 c -0.866,0.643 -1.542,1.557 -1.941,2.627 a 6.459,6.459 0 0 0 -0.299,3.381 6.075,6.075 0 0 0 1.442,2.997 c 0.737,0.819 1.676,1.376 2.698,1.602 a 4.782,4.782 0 0 0 3.044,-0.333 c 0.963,-0.443 1.786,-1.193 2.365,-2.156 a 6.324,6.324 0 0 0 0.888,-3.251 c 0,-0.77 -0.136,-1.53 -0.401,-2.24 a 5.925,5.925 0 0 0 -1.142,-1.9 5.262,5.262 0 0 0 -1.71,-1.268 4.814,4.814 0 0 0 -2.016,-0.445 z m 0,7.797 a 1.63,1.63 0 0 1 -0.973,-0.328 1.916,1.916 0 0 1 -0.644,-0.873 2.145,2.145 0 0 1 -0.1,-1.123 2.02,2.02 0 0 1 0.479,-0.995 c 0.245,-0.272 0.557,-0.457 0.896,-0.532 0.34,-0.075 0.692,-0.037 1.012,0.11 0.319,0.148 0.593,0.397 0.785,0.716 0.192,0.32 0.295,0.696 0.295,1.08 a 2.12,2.12 0 0 1 -0.128,0.751 1.974,1.974 0 0 1 -0.378,0.638 1.75,1.75 0 0 1 -0.57,0.427 c -0.214,0.099 -0.443,0.15 -0.674,0.15 z"
         id="path3" />
    </g>
    <text
       xml:space="preserve"
       style="font-style:normal;font-variant:normal;font-weight:500;font-stretch:normal;font-size:42px;line-height:0;font-family:Roboto;-inkscape-font-specification:'Roboto Medium';letter-spacing:0px;fill:#616161;stroke-width:2"
       x="107.8522"
       y="68.929535"
       id="text1"><tspan
         sodipodi:role="line"
         id="tspan1"
         x="107.8522"
         y="68.929535"
         style="font-style:normal;font-variant:normal;font-weight:500;font-stretch:normal;font-size:42px;line-height:0;font-family:Roboto;-inkscape-font-specification:'Roboto Medium';letter-spacing:0px;fill:#000000;fill-opacity:1">ВП</tspan></text>
  </g>
  <defs
     id="defs5">
    <clipPath
       id="a">
      <path
         fill="#ffffff"
         d="M 0,0 H 270.388 V 108 H 0 Z"
         id="path5" />
    </clipPath>
  </defs>
</svg>
